<svg width="27" height="28" viewBox="0 0 27 28" fill="none" xmlns="http://www.w3.org/2000/svg">
    <path d="M7.33333 19.3334C7.86377 19.3334 8.37247 19.1227 8.74755 18.7476C9.12262 18.3726 9.33333 17.8638 9.33333 17.3334C9.33984 17.2669 9.33984 17.1999 9.33333 17.1334L13.0533 13.4134H13.36H13.6667L15.8133 15.5601C15.8133 15.5601 15.8133 15.6267 15.8133 15.6667C15.8133 16.1972 16.024 16.7059 16.3991 17.081C16.7742 17.456 17.2829 17.6667 17.8133 17.6667C18.3438 17.6667 18.8525 17.456 19.2275 17.081C19.6026 16.7059 19.8133 16.1972 19.8133 15.6667V15.5601L24.6667 10.6667C25.0622 10.6667 25.4489 10.5495 25.7778 10.3297C26.1067 10.1099 26.363 9.79757 26.5144 9.43212C26.6658 9.06666 26.7054 8.66453 26.6282 8.27657C26.5511 7.88861 26.3606 7.53224 26.0809 7.25253C25.8012 6.97283 25.4448 6.78235 25.0568 6.70518C24.6689 6.62801 24.2668 6.66761 23.9013 6.81899C23.5358 6.97036 23.2235 7.22671 23.0037 7.55561C22.784 7.88451 22.6667 8.27119 22.6667 8.66675C22.6602 8.73326 22.6602 8.80024 22.6667 8.86675L17.8533 13.6801H17.64L15.3333 11.3334C15.3333 10.803 15.1226 10.2943 14.7475 9.9192C14.3725 9.54413 13.8638 9.33341 13.3333 9.33341C12.8029 9.33341 12.2942 9.54413 11.9191 9.9192C11.544 10.2943 11.3333 10.803 11.3333 11.3334L7.33333 15.3334C6.8029 15.3334 6.29419 15.5441 5.91912 15.9192C5.54405 16.2943 5.33333 16.803 5.33333 17.3334C5.33333 17.8638 5.54405 18.3726 5.91912 18.7476C6.29419 19.1227 6.8029 19.3334 7.33333 19.3334V19.3334ZM25.3333 24.6667H2.66667V2.00008C2.66667 1.64646 2.52619 1.30732 2.27614 1.05727C2.02609 0.807224 1.68696 0.666748 1.33333 0.666748C0.979711 0.666748 0.640573 0.807224 0.390524 1.05727C0.140476 1.30732 0 1.64646 0 2.00008V26.0001C0 26.3537 0.140476 26.6928 0.390524 26.9429C0.640573 27.1929 0.979711 27.3334 1.33333 27.3334H25.3333C25.687 27.3334 26.0261 27.1929 26.2761 26.9429C26.5262 26.6928 26.6667 26.3537 26.6667 26.0001C26.6667 25.6465 26.5262 25.3073 26.2761 25.0573C26.0261 24.8072 25.687 24.6667 25.3333 24.6667Z" fill="#A53DFF"/>
</svg>
