<svg width="28" height="22" viewBox="0 0 28 22" fill="none" xmlns="http://www.w3.org/2000/svg">
    <path d="M26 13.6668H24.6666V4.3335C24.6666 3.27263 24.2452 2.25521 23.4951 1.50507C22.7449 0.754924 21.7275 0.333496 20.6666 0.333496H7.33329C6.27243 0.333496 5.25501 0.754924 4.50487 1.50507C3.75472 2.25521 3.33329 3.27263 3.33329 4.3335V13.6668H1.99996C1.64634 13.6668 1.3072 13.8073 1.05715 14.0574C0.807102 14.3074 0.666626 14.6465 0.666626 15.0002V17.6668C0.666626 18.7277 1.08805 19.7451 1.8382 20.4953C2.58834 21.2454 3.60576 21.6668 4.66663 21.6668H23.3333C24.3942 21.6668 25.4116 21.2454 26.1617 20.4953C26.9119 19.7451 27.3333 18.7277 27.3333 17.6668V15.0002C27.3333 14.6465 27.1928 14.3074 26.9428 14.0574C26.6927 13.8073 26.3536 13.6668 26 13.6668ZM5.99996 4.3335C5.99996 3.97987 6.14044 3.64074 6.39048 3.39069C6.64053 3.14064 6.97967 3.00016 7.33329 3.00016H20.6666C21.0202 3.00016 21.3594 3.14064 21.6094 3.39069C21.8595 3.64074 22 3.97987 22 4.3335V13.6668H5.99996V4.3335ZM24.6666 17.6668C24.6666 18.0205 24.5262 18.3596 24.2761 18.6096C24.0261 18.8597 23.6869 19.0002 23.3333 19.0002H4.66663C4.313 19.0002 3.97387 18.8597 3.72382 18.6096C3.47377 18.3596 3.33329 18.0205 3.33329 17.6668V16.3335H24.6666V17.6668Z" fill="#A53DFF"/>
</svg>
