<svg width="28" height="28" viewBox="0 0 28 28" fill="none" xmlns="http://www.w3.org/2000/svg">
    <path d="M27.3333 7.65319C27.3343 7.47772 27.3007 7.30377 27.2343 7.14132C27.168 6.97887 27.0702 6.83111 26.9466 6.70653L21.2933 1.05319C21.1687 0.929618 21.021 0.831851 20.8585 0.765498C20.6961 0.699145 20.5221 0.665512 20.3466 0.666526C20.1712 0.665512 19.9972 0.699145 19.8348 0.765498C19.6723 0.831851 19.5246 0.929618 19.4 1.05319L15.6266 4.82653L1.05331 19.3999C0.92974 19.5244 0.831973 19.6722 0.76562 19.8346C0.699267 19.9971 0.665634 20.1711 0.666648 20.3465V25.9999C0.666648 26.3535 0.807124 26.6926 1.05717 26.9427C1.30722 27.1927 1.64636 27.3332 1.99998 27.3332H7.65331C7.83988 27.3433 8.02651 27.3142 8.20107 27.2475C8.37564 27.1809 8.53426 27.0784 8.66665 26.9465L23.16 12.3732L26.9466 8.66653C27.0683 8.5373 27.1675 8.38857 27.24 8.22653C27.2528 8.12025 27.2528 8.01281 27.24 7.90653C27.2462 7.84446 27.2462 7.78192 27.24 7.71986L27.3333 7.65319ZM7.10665 24.6665H3.33331V20.8932L16.5733 7.65319L20.3466 11.4265L7.10665 24.6665ZM22.2266 9.54653L18.4533 5.77319L20.3466 3.89319L24.1066 7.65319L22.2266 9.54653Z" fill="#A53DFF"/>
</svg>
