<svg width="24" height="24" viewBox="0 0 24 24" fill="none" xmlns="http://www.w3.org/2000/svg">
    <path d="M18 4.48003C16.4087 2.88873 14.2504 1.99475 12 1.99475C9.74955 1.99475 7.59129 2.88873 5.99999 4.48003C4.40869 6.07133 3.51471 8.2296 3.51471 10.48C3.51471 12.7305 4.40869 14.8887 5.99999 16.48L11.27 21.76C11.363 21.8538 11.4736 21.9282 11.5954 21.9789C11.7173 22.0297 11.848 22.0558 11.98 22.0558C12.112 22.0558 12.2427 22.0297 12.3646 21.9789C12.4864 21.9282 12.597 21.8538 12.69 21.76L18 16.43C19.5846 14.8454 20.4749 12.6961 20.4749 10.455C20.4749 8.21398 19.5846 6.06471 18 4.48003ZM16.57 15L12 19.59L7.42999 15C6.52713 14.0963 5.91247 12.9453 5.66369 11.6923C5.4149 10.4394 5.54318 9.14078 6.03229 7.96071C6.52141 6.78065 7.34941 5.77208 8.41162 5.06251C9.47383 4.35294 10.7226 3.97421 12 3.97421C13.2774 3.97421 14.5261 4.35294 15.5884 5.06251C16.6506 5.77208 17.4786 6.78065 17.9677 7.96071C18.4568 9.14078 18.5851 10.4394 18.3363 11.6923C18.0875 12.9453 17.4728 14.0963 16.57 15ZM8.99999 7.41003C8.19271 8.2198 7.73939 9.3166 7.73939 10.46C7.73939 11.6035 8.19271 12.7003 8.99999 13.51C9.59975 14.1108 10.3636 14.5211 11.1956 14.6894C12.0277 14.8578 12.8909 14.7766 13.6771 14.4562C14.4632 14.1358 15.1372 13.5903 15.6145 12.8883C16.0918 12.1863 16.3511 11.3589 16.36 10.51C16.3645 9.94324 16.2553 9.38129 16.0389 8.85742C15.8225 8.33355 15.5032 7.85839 15.1 7.46003C14.7037 7.05461 14.2311 6.73157 13.7094 6.5095C13.1878 6.28743 12.6273 6.17071 12.0604 6.16606C11.4935 6.16141 10.9312 6.26893 10.406 6.48242C9.88073 6.69591 9.40291 7.01116 8.99999 7.41003ZM13.69 12.09C13.311 12.4748 12.8102 12.7159 12.2731 12.7723C11.736 12.8286 11.1961 12.6967 10.7455 12.399C10.2949 12.1012 9.96179 11.6563 9.803 11.1401C9.64421 10.624 9.66964 10.0687 9.87495 9.56919C10.0803 9.06971 10.4527 8.65705 10.9286 8.40177C11.4045 8.14649 11.9542 8.06444 12.4839 8.16965C13.0136 8.27486 13.4903 8.56079 13.8325 8.97856C14.1747 9.39634 14.3612 9.92 14.36 10.46C14.3454 11.0773 14.0865 11.6636 13.64 12.09H13.69Z" fill="white"/>
</svg>
