<svg width="24" height="28" viewBox="0 0 24 28" fill="none" xmlns="http://www.w3.org/2000/svg">
    <path d="M17.3333 16.6667H6.66667C6.31305 16.6667 5.97391 16.8072 5.72386 17.0573C5.47381 17.3073 5.33333 17.6465 5.33333 18.0001C5.33333 18.3537 5.47381 18.6928 5.72386 18.9429C5.97391 19.1929 6.31305 19.3334 6.66667 19.3334H17.3333C17.687 19.3334 18.0261 19.1929 18.2761 18.9429C18.5262 18.6928 18.6667 18.3537 18.6667 18.0001C18.6667 17.6465 18.5262 17.3073 18.2761 17.0573C18.0261 16.8072 17.687 16.6667 17.3333 16.6667ZM17.3333 11.3334H9.33333C8.97971 11.3334 8.64057 11.4739 8.39052 11.7239C8.14048 11.974 8 12.3131 8 12.6667C8 13.0204 8.14048 13.3595 8.39052 13.6096C8.64057 13.8596 8.97971 14.0001 9.33333 14.0001H17.3333C17.687 14.0001 18.0261 13.8596 18.2761 13.6096C18.5262 13.3595 18.6667 13.0204 18.6667 12.6667C18.6667 12.3131 18.5262 11.974 18.2761 11.7239C18.0261 11.4739 17.687 11.3334 17.3333 11.3334ZM22.6667 3.33341H18.6667V2.00008C18.6667 1.64646 18.5262 1.30732 18.2761 1.05727C18.0261 0.807224 17.687 0.666748 17.3333 0.666748C16.9797 0.666748 16.6406 0.807224 16.3905 1.05727C16.1405 1.30732 16 1.64646 16 2.00008V3.33341H13.3333V2.00008C13.3333 1.64646 13.1929 1.30732 12.9428 1.05727C12.6928 0.807224 12.3536 0.666748 12 0.666748C11.6464 0.666748 11.3072 0.807224 11.0572 1.05727C10.8071 1.30732 10.6667 1.64646 10.6667 2.00008V3.33341H8V2.00008C8 1.64646 7.85952 1.30732 7.60948 1.05727C7.35943 0.807224 7.02029 0.666748 6.66667 0.666748C6.31305 0.666748 5.97391 0.807224 5.72386 1.05727C5.47381 1.30732 5.33333 1.64646 5.33333 2.00008V3.33341H1.33333C0.979711 3.33341 0.640573 3.47389 0.390524 3.72394C0.140476 3.97399 0 4.31313 0 4.66675V23.3334C0 24.3943 0.421427 25.4117 1.17157 26.1618C1.92172 26.912 2.93913 27.3334 4 27.3334H20C21.0609 27.3334 22.0783 26.912 22.8284 26.1618C23.5786 25.4117 24 24.3943 24 23.3334V4.66675C24 4.31313 23.8595 3.97399 23.6095 3.72394C23.3594 3.47389 23.0203 3.33341 22.6667 3.33341ZM21.3333 23.3334C21.3333 23.687 21.1929 24.0262 20.9428 24.2762C20.6928 24.5263 20.3536 24.6667 20 24.6667H4C3.64638 24.6667 3.30724 24.5263 3.05719 24.2762C2.80714 24.0262 2.66667 23.687 2.66667 23.3334V6.00008H5.33333V7.33342C5.33333 7.68704 5.47381 8.02618 5.72386 8.27622C5.97391 8.52627 6.31305 8.66675 6.66667 8.66675C7.02029 8.66675 7.35943 8.52627 7.60948 8.27622C7.85952 8.02618 8 7.68704 8 7.33342V6.00008H10.6667V7.33342C10.6667 7.68704 10.8071 8.02618 11.0572 8.27622C11.3072 8.52627 11.6464 8.66675 12 8.66675C12.3536 8.66675 12.6928 8.52627 12.9428 8.27622C13.1929 8.02618 13.3333 7.68704 13.3333 7.33342V6.00008H16V7.33342C16 7.68704 16.1405 8.02618 16.3905 8.27622C16.6406 8.52627 16.9797 8.66675 17.3333 8.66675C17.687 8.66675 18.0261 8.52627 18.2761 8.27622C18.5262 8.02618 18.6667 7.68704 18.6667 7.33342V6.00008H21.3333V23.3334Z" fill="white"/>
</svg>
